# xmcd
#
# Track frame offsets: 
#        182
#        64207
#        95060
#        110960
#        128717
#        178885
#        201747
#        215820
#        239962
#        252637
#        264195
#        273117
#
# Disc length: 3743 seconds
#
# Revision: 8
# Processed by: cddbd v1.5.2PL0 Copyright (c) Steve Scherf et al.
# Submitted via: ExactAudioCopy v1.3
#
DISCID=d00e9d0c
DTITLE=Roger Norrington and London Classical Players - Beethoven 9 Symph
DTITLE=onies CD6
DYEAR=1987
DGENRE=Classical
TTITLE0=Beethoven Symphony No 9 in d minor Op 125 Choral - 1 Allegro m
TTITLE0=a non troppo un poco maestoso
TTITLE1=Beethoven Symphony No 9 in d minor Op 125 Choral - 2 - 1 Molto
TTITLE1=vivace-Presto-
TTITLE2=Beethoven Symphony No 9 in d minor Op 125 Choral - 2 - 2 Molto
TTITLE2=vivace-Presto-
TTITLE3=Beethoven Symphony No 9 in d minor Op 125 Choral - 2 - 3 Molto
TTITLE3=vivace-Presto
TTITLE4=Beethoven Symphony No 9 in d minor Op 125 Choral - 3 Adagio mo
TTITLE4=lto e cantabile-Andante moderato-Tempo I-Andante moderato-Adag
TTITLE4=io
TTITLE5=Beethoven Symphony No 9 in d minor Op 125 Choral - 4 - 1 Prest
TTITLE5=o-Allegro ma non troppo-Tempo I-Vivace-
TTITLE6=Beethoven Symphony No 9 in d minor Op 125 Choral - 4 - 2 Prest
TTITLE6=o-Recitativo-Allegro assai-
TTITLE7=Beethoven Symphony No 9 in d minor Op 125 Choral - 4 - 3 Alleg
TTITLE7=ro assai vivace Alla marcia-
TTITLE8=Beethoven Symphony No 9 in d minor Op 125 Choral - 4 - 4 Andan
TTITLE8=te maestoso-Adagio ma non troppo ma divoto-
TTITLE9=Beethoven Symphony No 9 in d minor Op 125 Choral - 4 - 5 Alleg
TTITLE9=ro energico sempre ben marcato-
TTITLE10=Beethoven Symphony No 9 in d minor Op 125 Choral - 4 - 6 Alle
TTITLE10=gro ma non tanto-Poco adagio-Tempo I-Poco adagio-
TTITLE11=Beethoven Symphony No 9 in d minor Op 125 Choral - 4 - 7 Poco
TTITLE11=allegro stringendo il tempo sempre piu allegro-Prestissimo-M
TTITLE11=eastoso-Prestissimo
EXTD=
EXTT0=
EXTT1=
EXTT2=
EXTT3=
EXTT4=
EXTT5=
EXTT6=
EXTT7=
EXTT8=
EXTT9=
EXTT10=
EXTT11=
PLAYORDER=
